Coordinates
version=1
nRows=38
nColumns=12
inDegrees=yes

Units are S.I. units (second, meters, Newtons, ...)
Angles are in degrees

endheader
time	SC_y	SC_z	SC_x	AC_y	AC_z	AC_x	GH_y	GH_z	GH_yy	EL_x	PS_y
       0.0              -26.77          21.25          31.27          43.19          4.856          1.273         -34.96         -2.295          58.39          97.61          116.1
     0.022              -26.77          21.25          31.28          43.19          4.857          1.275         -34.96         -2.292          58.36           97.6          116.1
     0.044              -26.78          21.25          31.28          43.19          4.857          1.278         -34.96         -2.288          58.33           97.6          116.1
     0.066              -26.78          21.25          31.29          43.19          4.858          1.281         -34.96         -2.285           58.3           97.6          116.1
     0.088              -26.78          21.24           31.3          43.19          4.858          1.284         -34.96         -2.281          58.27          97.59          116.1
      0.11              -26.78          21.24           31.3          43.19          4.859          1.287         -34.96         -2.277          58.24          97.59          116.1
     0.132              -26.78          21.24          31.31          43.19          4.859          1.291         -34.96         -2.273           58.2          97.59          116.1
     0.154              -26.79          21.23          31.32          43.19           4.86          1.295         -34.96         -2.268          58.16          97.58          116.1
     0.176              -26.79          21.23          31.33          43.19           4.86          1.299         -34.96         -2.263          58.11          97.58          116.1
     0.198              -26.79          21.22          31.34          43.19          4.861          1.303         -34.96         -2.258          58.07          97.57          116.1
      0.22               -26.8          21.22          31.35          43.19          4.862          1.308         -34.96         -2.253          58.02          97.57          116.1
     0.242               -26.8          21.21          31.36          43.19          4.862          1.313         -34.96         -2.247          57.96          97.56          116.2
     0.264               -26.8          21.21          31.38          43.19          4.863          1.318         -34.96          -2.24          57.91          97.55          116.2
     0.286              -26.81           21.2          31.39          43.19          4.864          1.324         -34.96         -2.233          57.84          97.55          116.2
     0.308              -26.81          21.19          31.41          43.19          4.865           1.33         -34.96         -2.225          57.78          97.54          116.2
      0.33              -26.82          21.19          31.42          43.19          4.866          1.337         -34.96         -2.217           57.7          97.53          116.2
     0.352              -26.82          21.18          31.44          43.19          4.867          1.345         -34.97         -2.208          57.62          97.52          116.2
     0.374              -26.83          21.17          31.46          43.19          4.869          1.353         -34.97         -2.198          57.54          97.51          116.3
     0.396              -26.83          21.16          31.48          43.19           4.87          1.362         -34.97         -2.188          57.44           97.5          116.3
     0.418              -26.84          21.15           31.5          43.19          4.871          1.371         -34.97         -2.176          57.34          97.49          116.3
      0.44              -26.85          21.14          31.53          43.19          4.873          1.382         -34.97         -2.163          57.23          97.48          116.3
     0.462              -26.85          21.13          31.56          43.19          4.875          1.394         -34.97         -2.149           57.1          97.47          116.4
     0.484              -26.86          21.12          31.59          43.19          4.877          1.407         -34.97         -2.133          56.96          97.45          116.4
     0.506              -26.87           21.1          31.62          43.19          4.879          1.421         -34.97         -2.116          56.81          97.43          116.4
     0.528              -26.88          21.08          31.66          43.19          4.881          1.437         -34.97         -2.097          56.64          97.42          116.5
      0.55               -26.9          21.06           31.7          43.19          4.884          1.455         -34.97         -2.075          56.45           97.4          116.5
     0.572              -26.91          21.04          31.75          43.19          4.887          1.475         -34.98         -2.051          56.24          97.37          116.6
     0.594              -26.92          21.02           31.8          43.19           4.89          1.497         -34.98         -2.024           56.0          97.35          116.6
     0.616              -26.94          20.99          31.86           43.2          4.894          1.522         -34.98         -1.993          55.73          97.32          116.7
     0.638              -26.96          20.96          31.93           43.2          4.898          1.551         -34.98         -1.959          55.42          97.28          116.7
      0.66              -26.98          20.93          32.01           43.2          4.903          1.584         -34.98         -1.919          55.07          97.25          116.8
     0.682              -27.01          20.89           32.1           43.2          4.909          1.621         -34.99         -1.873          54.67           97.2          116.9
     0.704              -27.04          20.85           32.2           43.2          4.915          1.665         -34.99         -1.821           54.2          97.15          117.0
     0.726              -27.07          20.79          32.32           43.2          4.923          1.715         -34.99          -1.76          53.66          97.09          117.1
     0.748              -27.11          20.73          32.46           43.2          4.932          1.775          -35.0         -1.688          53.03          97.02          117.3
      0.77              -27.16          20.66          32.63           43.2          4.942          1.844          -35.0         -1.604          52.29          96.94          117.5
     0.792              -27.22          20.57          32.82          43.21          4.955          1.927         -35.01         -1.504           51.4          96.85          117.7
     0.814              -27.28          20.47          33.06          43.21           4.97          2.026         -35.02         -1.384          50.34          96.73          117.9
